<svg xmlns="http://www.w3.org/2000/svg" width="1440" height="560" preserveAspectRatio="none"  xmlns:v="https://vecta.io/nano"><g mask="url(#A)"><path fill="#1e3266" d="M0 0h1440v560H0z"/><path d="M1536 560H0V287.11q88.64-31.36 120 57.28 21.87-50.14 72-28.27 52.54-67.46 120-14.92 52.02-19.98 72 32.03 42.63-29.37 72 13.25 11.52-60.48 72-48.96 70.04-49.96 120 20.09 75.98-44.02 120 31.96 6.83-65.17 72-58.33 66.93-53.06 120 13.87 67.06-4.94 72 62.12 23.15-48.85 72-25.7 20.81-51.19 72-30.38 89.86-30.14 120 59.72 47.36-72.64 120-25.28 37.39-82.61 120-45.22z" fill="#182f5d"/><path d="M1536 560H0V370.24q28.42-43.58 72-15.15 85.42-34.58 120 50.84 22.94-49.06 72-26.13 28.7-43.3 72-14.59 48.46-23.54 72 24.93 60.93-11.08 72 49.85 52.6-67.4 120-14.81 31.4-88.6 120-57.2 83.51-36.49 120 47.02 42.39-29.61 72 12.78 35.35-84.65 120-49.31 50.18-21.82 72 28.37 66.04-53.96 120 12.07 31.43-88.57 120-57.14 47.39-24.61 72 22.79 66.77-53.23 120 13.54z" fill="#25467d"/><path d="M1560 560H0V424.47q51.5-20.5 72 31 68.75-51.25 120 17.5 74-45.99 120 28.01 34.51-85.49 120-50.98 47.05-72.95 120-25.9 93.69-26.3 120 67.39 49.26-70.74 120-21.48 50.3-69.7 120-19.4 78.02-41.98 120 36.05 43.21-28.79 72 14.42 13.17-58.83 72-45.65 46.8-25.2 72 21.59 79.3-40.71 120 38.59 25.8-46.21 72-20.41 52.06-67.94 120-15.88z" fill="#356cb1"/><path d="M1464 560H0v-53.63q62.23-57.77 120 4.45 70.43-49.57 120 20.86 60.72-11.29 72 49.43 17.72-102.28 120-84.57 44.46-27.54 72 16.92 68.28-3.71 72 64.57 10.63-61.37 72-50.73 18.85-53.16 72-34.31 84.93-35.07 120 49.87 51.78-20.22 72 31.57 49.84-70.16 120-20.32 30.28-41.72 72-11.43 72.38-47.61 120 24.77 34.47-85.53 120-51.05 46.85-73.15 120-26.31z" fill="#fff"/></g><defs><mask id="A"><path fill="#fff" d="M0 0h1440v560H0z"/></mask></defs></svg>